<?xml version="1.0" encoding="utf-8"?>
<!-- Generator: Adobe Illustrator 18.1.1, SVG Export Plug-In . SVG Version: 6.00 Build 0)  -->
<svg version="1.1" id="Layer_1" xmlns="http://www.w3.org/2000/svg" xmlns:xlink="http://www.w3.org/1999/xlink" x="0px" y="0px"
	 viewBox="0 0 128 128" enable-background="new 0 0 128 128" xml:space="preserve">
<rect x="0" y="1" fill="#FCEEC6" width="128.1" height="127"/>
<rect x="16.7" y="20.1" fill="#FFFFFF" stroke="#000000" stroke-width="2" stroke-linecap="round" stroke-linejoin="round" stroke-miterlimit="10" width="96.4" height="60"/>
<g>
	<path fill="none" d="M74.5,55.3c6.8-4.1,13.9-8,20.5-12.4c0.9-0.6,7.6-4.4,6.7-5.9c-0.6-0.9-6.7,2-7.4,2.4c-4,2.1-7.8,4.5-11.4,7.1
		c-7,5-13.4,10.6-20,16.1c-0.7,0.6-1.4,1.2-2.1,1.7C65.2,61.1,69.8,58.1,74.5,55.3z"/>
	<path fill="#9ADDF4" d="M99.5,53.5C91.2,54.6,83.1,60,76.3,64c-3.8,2.2-7.6,4.6-11.4,6.8c-3.6,2.1-8.3,5.6-12.5,6.6
		c-1.1,0.2-1.9,1.6-1.8-0.5c0-0.3,2-2,2-2.1c1.4-1.4,2.9-2.7,4.4-4c3.5-3,7.3-5.7,11.2-8.3c7.1-4.6,14.5-8.8,21.8-13.2
		c3.2-1.9,6.4-3.9,9.4-6c2-1.4,5.8-3.7,5.8-6.3c0.1-5.1-9.4-1.4-11.8-0.2c-8.4,4.1-15.8,9.9-22.8,15.7c-3.7,3-7.4,6.2-11.1,9.2
		c-2.1,1.7-4.1,3.4-6.3,5c-1.1,0.9-3.6,3.3-5.7,4.3c1.1-2.1,4.5-5.2,5.2-6c1.7-1.8,3.6-3.5,5.5-5.2c3.9-3.4,8.1-6.4,12.4-9.4
		c4.4-3.1,9-6,13.5-9c3.3-2.2,7.4-4.1,8.5-7.8c0.2-0.6-0.2-1.5-1-1.6c-5.5-0.8-11.3,2.1-16,4.4c-5.1,2.5-9.8,5.6-14.4,8.8
		c-5.1,3.6-10,7.5-15.2,11.1c-1.2,0.8-3.4,3.1-4.7,3.2c-3.9,0.2-1.2-3.7,0-5.4c2.1-2.8,5-5.2,7.8-7.5c5-4.1,10.6-7.7,15.3-12
		c1.7-1.6,3.6-4.2-0.1-5.1c-4.8-1.1-12.7,4.2-16.5,6.2c-4.9,2.5-9.7,5.2-14.4,7.9c2.6-2.7,5.6-5,8.7-7.4c1.9-1.5,8.7-5.6,7.6-8.5
		C48.5,24,37,28.3,28.6,31.9c3-2.2,6.2-4.3,8.6-7.2c0.8-0.9-0.5-2.3-1.7-1.9c-2.3,0.7-4.6,1.4-6.8,2.3c-0.3-0.2-0.8-0.4-1.3-0.3
		c-1.7,0.3-3,0.8-4.5,1.5c-0.7,0.3-0.9,1-0.6,1.5c-1.5,0.9-3,1.8-4.4,2.7c-1.6,1-0.1,3.2,1.5,2.3c3.6-2.2,7.3-4,11.3-5.5
		c-3.8,3-8.1,5.5-11.1,9.2c-0.9,1.1,0.8,2.4,2.1,1.8c5-2.5,10-4.6,15.3-6.5c2.5-0.9,5.2-1.8,7.8-2.4c1.5-0.3,1.5-0.9,1.2,0.1
		c-0.3,0.8-1.9,1.8-2.5,2.3c-5.8,5-12.6,9.1-16.2,15.7c-0.6,1.1,0.7,2.6,2.1,1.8c6.2-3.5,12.4-7.1,18.7-10.4
		c3.2-1.7,6.3-3.4,9.7-4.8c-0.3,0.1,4.4-2.2,4.9-1.3c0.1,0.2-3.5,3-3.7,3.1c-5,4.1-10.6,7.7-15.3,12c-3.2,3-8,7.6-7.7,12.1
		c0.6,9.2,16.9-4.9,19.2-6.6c4.9-3.6,9.8-7.3,15-10.6c4.6-2.9,12.7-8.1,19-8.3c-1.7,2.3-5.4,4.1-7.6,5.6c-2.4,1.6-4.8,3.2-7.3,4.8
		c-4.3,2.8-8.5,5.7-12.5,8.8c-4.3,3.3-8.4,6.8-12,10.6c-2.1,2.3-6.4,5.7-5.3,8.9c0.2,0.6,0.8,0.9,1.4,1c2,0.2,3.7-0.9,5.2-2.1
		c-3,2.6-6.1,5.9-4.6,8.2c3.5,5.4,33.4-15.2,37.9-17.6c2.2-1.2,4.4-2.3,6.7-3.3c1.9-0.9,5.5-3,7.7-2.9c4.7,0.2-0.2,3.6-1.7,5
		c-2,1.7-4.2,3.3-6.2,5c-3.6,2.9-7.7,6-10.6,9.4c-1.6,1.9-1.9,3.4,0,5.1c1.3,1.2,3.4-0.6,2.1-1.9c-2-1.9,17.7-16.3,19.7-18.5
		C105.1,57.2,106.1,52.7,99.5,53.5z M82.9,46.5c3.6-2.6,7.4-5,11.4-7.1c0.7-0.3,6.8-3.2,7.4-2.4c1,1.5-5.8,5.3-6.7,5.9
		c-6.7,4.3-13.7,8.3-20.5,12.4c-4.7,2.8-9.3,5.7-13.7,8.9c0.7-0.6,1.4-1.2,2.1-1.7C69.5,57.1,75.9,51.5,82.9,46.5z"/>
</g>
<line fill="none" stroke="#000000" stroke-width="2" stroke-linecap="round" stroke-linejoin="round" stroke-miterlimit="10" x1="65" y1="20" x2="65" y2="80"/>
<line fill="none" stroke="#000000" stroke-width="2" stroke-linejoin="round" stroke-miterlimit="10" x1="16" y1="50" x2="112" y2="50"/>
<rect x="16" y="74.9" fill="#9E8C7B" stroke="#000000" stroke-linecap="round" stroke-linejoin="round" stroke-miterlimit="10" width="96" height="8.7"/>
<path fill="#0B59F7" stroke="#000000" stroke-width="2" stroke-linecap="round" stroke-linejoin="round" stroke-miterlimit="10" d="
	M11.6,26.5c0-1,2.6-0.9,3.6-0.9c1,0,1.9,0.4,2.8,0.5c1.3,0.1,2.6-0.5,3.9-0.5c1.1,0,2.2,0.4,3.4,0.7c1.1,0.2,2.4,0.1,3.2-0.7
	c0.6-0.7,0.8-1.7,1.7-2c1.2-0.4,2.2,1.1,3.4,1.4c0.6,0.1,1.3,0.1,1.6,0.5c0.3,0.3,0.2,0.8,0.1,1.2c-0.3,1.3-0.9,2.5-0.9,3.8
	c0,1.2,0.4,2.4,0.6,3.6c0.1,1.2-0.2,2.6-1.2,3.2c-0.5,0.3-1.1,0.3-1.7,0.6c-1.8,1-1.2,4.6-3.2,5.2c-0.5,0.2-1.1,0.1-1.7,0.2
	c-1.3,0.4-1.5,2.1-2.1,3.3c-0.8,1.7-2.5,3-2.9,4.8c-0.4,1.3,0,2.8-0.4,4.1c-0.2,0.8-0.8,1.6-1,2.4c-0.8,2.8,1.4,5.4,2.4,8.1
	c0.8,2.2,0.7,4.8-0.2,6.9c-0.5,1.1-1.3,2.2-1.5,3.4c-0.4,1.6,0.1,3.2,0.6,4.8c0.5,1.5,1.1,3.1,1,4.7c-0.1,1.6-1,3.3-2.6,3.8
	c-2.6,0.7-5-2.5-7.7-2.4c-1.1,0-2.2,0.7-3.3,1c-0.2,0.1-0.4,0.1-0.6,0c-0.2-0.1-0.2-0.3-0.3-0.5c-0.4-1.8-0.8-3.7-0.4-5.5
	C8.4,81,9,80,9.4,79c2.2-4.8,2.9-10.2,2.1-15.4c-0.5-3.1-1.6-6.3-1.1-9.4c0.1-0.4,0.2-0.9,0.4-1.3c0.2-0.4,0.6-0.7,0.8-1.1
	c0.4-0.7,0.4-1.6,0.4-2.4C11.9,41.7,11.7,34.1,11.6,26.5"/>
<path fill="#0B59F7" stroke="#000000" stroke-width="2" stroke-linecap="round" stroke-linejoin="round" stroke-miterlimit="10" d="
	M118.4,18.3c0-1-3.1,7.2-4,7.3c-1,0-1.9,0.4-2.8,0.5c-1.3,0.1-2.6-0.5-3.9-0.5c-1.1,0-2.2,0.4-3.4,0.7c-1.1,0.2-2.4,0.1-3.2-0.7
	c-0.6-0.7-0.8-1.7-1.7-2c-1.2-0.4-2.2,1.1-3.4,1.4c-0.6,0.1-1.3,0.1-1.6,0.5c-0.3,0.3-0.2,0.8-0.1,1.2c0.3,1.3,0.9,2.5,0.9,3.8
	c0,1.2-0.4,2.4-0.6,3.6s0.2,2.6,1.2,3.2c0.5,0.3,1.1,0.3,1.7,0.6c1.8,1,1.2,4.6,3.2,5.2c0.5,0.2,1.1,0.1,1.7,0.2
	c1.3,0.4,1.5,2.1,2.1,3.3c0.8,1.7,2.5,3,2.9,4.8c0.4,1.3,0,2.8,0.4,4.1c0.2,0.8,0.8,1.6,1,2.4c0.8,2.8-1.4,5.4-2.4,8.1
	c-0.8,2.2-0.7,4.8,0.2,6.9c0.5,1.1,1.3,2.2,1.5,3.4c0.4,1.6-0.1,3.2-0.6,4.8c-0.5,1.5-1.1,3.1-1,4.7c0.1,1.6,1,3.3,2.6,3.8
	c2.6,0.7,5-2.5,7.7-2.4c1.1,0,2.2,0.7,3.3,1c0.2,0.1,0.4,0.1,0.6,0c0.2-0.1,0.2-0.3,0.3-0.5c0.4-1.8,0.8-3.7,0.4-5.5
	c-0.2-1.1-0.8-2.1-1.2-3.1c-2.2-4.8-2.9-10.2-2.1-15.4c0.5-3.1,1.6-6.3,1.1-9.4c-0.1-0.4-0.2-0.9-0.4-1.3c-0.2-0.4-0.6-0.7-0.8-1.1
	c-0.4-0.7-0.4-1.6-0.4-2.4C117.7,41.7,118.3,25.9,118.4,18.3"/>
<path fill="#0B59F7" stroke="#000000" stroke-width="2" stroke-linecap="round" stroke-linejoin="round" stroke-miterlimit="10" d="
	M13.9,28.4c0,1.4,2.1,1.6,3.3,0.9s2.2-2,3.6-1.9c1.9,0.1,3.5,2.7,5.1,1.7c0.4-0.2,0.6-0.6,1-0.8c1.4-0.7,2.8,1.2,4.4,1.3
	c1.9,0.1,3.1-2.4,5-2.3c1.8,0.1,2.7,2.4,4.4,2.7c2.1,0.4,4.2-2.2,6.1-1.2c0.9,0.5,1.6,1.6,2.5,1.4c0.7-0.2,1-1,1.6-1.3
	c1.8-1.1,4.2,2.3,5.8,1c0.4-0.3,0.5-0.9,1-1.2c1.4-1,2.9,1.9,4.6,1.6c1.1-0.2,1.6-1.8,2.7-2.1c1.6-0.4,2.7,2.1,4.4,1.8
	c0.7-0.1,1.3-0.7,1.9-1c2.3-1,5.3,2.3,7.3,0.7c0.7-0.5,1-1.5,1.8-1.7c1.5-0.4,2.3,2.1,3.8,2.4c1.5,0.3,2.6-1.7,4.1-1.8
	c1.9-0.2,3.8,2.4,5.3,1.3c0.6-0.4,0.8-1.3,1.4-1.7c1.6-1,3.5,2.1,5.3,1.5c0.5-0.2,0.9-0.6,1.4-0.6c0.9,0,1.3,1.3,2.2,1.5
	c1,0.2,1.6-1.1,2.6-1.2c1.3-0.2,2.4,1.7,3.5,1.1c0.4-0.2,0.6-0.7,1.1-0.7c0.5,0,0.8,0.5,1.2,0.8c0.7,0.5,1.7,0,2.1-0.7
	c0.4-0.7,0.5-1.6,0.6-2.4c0.4-2.6,1.8-5,2.5-7.6c0.6-2.6,0.2-5.8-2-7.2c-1.4-0.9-3.2-0.8-4.9-0.7c-6.6,0.4-13.2,1-19.8,1.5
	c-6.1,0.5-12.3,1-18.4,0.9c-2.3-0.1-4.5-0.2-6.8-0.1c-1.6,0.1-3.2,0.3-4.8,0.2c-2.4-0.1-4.7-0.8-7.1-1.2c-2.2-0.3-4.5-0.2-6.7-0.2
	c-6.3,0.2-12.6,0.4-18.9,0.5c-5,0.1-10.3,0.4-14.5,3.1c-1.1,0.7-2.2,1.7-2.7,2.9c-1,2.5,0.5,5.2,1.9,7.4c0.4,0.6,0.7,1.1,1.2,1.6"/>
<path fill="none" stroke="#000000" stroke-width="2" stroke-linecap="round" stroke-linejoin="round" stroke-miterlimit="10" d="
	M9.6,53.9c2.4,0.4,4.2,2.8,6.6,2.8c1.1,0,2.1-0.5,3-1c1-0.5,2-1.1,3-1.8"/>
<path fill="none" stroke="#000000" stroke-width="2" stroke-linecap="round" stroke-linejoin="round" stroke-miterlimit="10" d="
	M108.2,55.9c1.2,0.6,2.5,0.5,3.8,0.5c0.9,0,1.8-0.1,2.7-0.5c1.4-0.7,2.2-2.2,3.5-3.2"/>
<line fill="none" stroke="#000000" stroke-width="4" stroke-miterlimit="10" x1="0" y1="2" x2="128" y2="2"/>
</svg>
