<?xml version="1.0" encoding="utf-8"?>
<!-- Generator: Adobe Illustrator 18.1.1, SVG Export Plug-In . SVG Version: 6.00 Build 0)  -->
<svg version="1.1" id="Layer_1" xmlns="http://www.w3.org/2000/svg" xmlns:xlink="http://www.w3.org/1999/xlink" x="0px" y="0px"
	 viewBox="0 0 128 128" enable-background="new 0 0 128 128" xml:space="preserve">
<path fill="#FFFF00" stroke="#000000" stroke-miterlimit="10" d="M61.3,77.2c-2.5-0.2-5.1-0.4-7.6-0.6c-3.1-0.2-6.4-0.5-9-2.2
	c-0.2-0.1-0.5-0.3-0.6-0.6c-0.2-0.4-0.1-0.9,0.1-1.3c1.9-5.5,4-10.9,6.3-16.2c0.2-0.5,0.4-0.9,0.8-1.2c0.7-0.5,1.6-0.2,2.3,0.1
	c3.2,1.6,5.2,5,8.5,6.3c2.5,1,5.6,0.8,7.7,2.5c-1.6,3.7-3.2,7.5-4.7,11.2c-0.5,1.2-1.3,2.7-2.6,2.8"/>
<path fill="#CCCCCC" stroke="#000000" stroke-miterlimit="10" d="M63.4,57.8c-7-5.1-14.1-10.1-21.2-15c-2.6-1.8-5.7-3.9-9.5-4.3
	c-1-0.1-2.3,0.2-3,1.1c-0.5,0.6-0.6,1.3-0.4,2c0.1,0.5,0.5,0.8,0.9,0.9l1.1,1.6c-7,4.4-12.4,11.1-15.3,18.8
	c-0.1,0.4-0.5,1.3-0.8,1.4c-0.1,0-0.5,0-0.8-0.1c-0.5-0.1-1-0.2-1.6-0.1c-2.3,0.2-3.5,2.6-3.9,3.6c-0.2,0.4-0.2,0.8,0,1.2
	c0.1,0.4,0.5,0.7,0.8,0.8c2.3,0.9,3.9,3,5.6,5.3c1.4,1.9,2.9,4,5,5.4c0.9,0.6,2,1.1,2.9,1.6c0.8,0.4,1.6,0.7,2.2,1.2
	c0.6,0.4,1.2,0.8,1.8,1.3c1.4,1.1,2.9,2.3,4.8,2.7c0.2,0,0.5,0.1,0.7,0.1c0.3,0,0.5,0.1,0.8,0.2c0.4,0.1,0.9,0.5,1.4,0.8l3.1,2.3
	c0.3,0.2,0.7,0.3,1.1,0.3c0.2,0,0.3-0.1,0.4-0.2c1-0.5,1.7-1.4,2.1-2.5c0.1,0,0.1-0.1,0.2-0.1l7.4-6.2c0.9-0.7,1.8-1.5,2.6-2.6
	c0.7-0.9,1.1-1.9,1.5-2.8l6.3-14.1c0.1-0.3,0.1-0.6,0.1-0.9c0,0,0,0,0,0c0.3-0.1,0.6-0.1,0.8-0.2c1-0.2,2.5-0.4,3.2-1.8
	C64.1,59,63.9,58.2,63.4,57.8z"/>
<path fill="none" stroke="#000000" stroke-linecap="round" stroke-linejoin="round" stroke-miterlimit="10" d="M60.4,102.2
	c12.5,0.5,22.5,1.9,33.3-0.9c-0.1,0.2-0.3,0.4-0.4,0.5"/>
<path fill="#29ABE2" stroke="#000000" stroke-linecap="round" stroke-linejoin="round" stroke-miterlimit="10" d="M58.4,102
	c-0.6,4.2-0.7,10.4-0.2,14.7c0.1,0.9,0.3,1.8,0.9,2.4c0.6,0.5,1.4,0.6,2.1,0.6c10.2,0.8,20.4,0,30.5-0.9c1.7-0.2,3.6-0.4,4.6-1.8
	c0.8-1.1,0.8-2.6,0.7-4c-0.3-3.4-1.3-6.8-2.8-9.9L58.4,102z"/>
<path fill="#BDCCD4" stroke="#000000" stroke-linecap="round" stroke-linejoin="round" stroke-miterlimit="10" d="M59.9,120.6
	c-2.2,0.4-3.9,2.4-4,4.6c0,0.5,0.1,1.1,0.5,1.3c0.3,0.2,0.7,0.2,1,0.2c5.7-0.2,11.4-0.5,17-0.7c2.8-0.1,5.7-0.2,8.5-0.7
	c2.2-0.4,4.4-1,6.6-1.1c2.9-0.1,5.9,0.8,8.7-0.1c0.2-0.1,0.4-0.2,0.6-0.3c0.1-0.2,0.1-0.4,0.2-0.6c0.1-1.7-0.7-3.4-2-4.5L59.9,120.6
	z"/>
<path fill="#FFFF00" stroke="#000000" stroke-linecap="round" stroke-linejoin="round" stroke-miterlimit="10" d="M59.2,60.3
	c1.6,0.2,3.7,0.1,4.5-1.4c0.2-0.4,0.3-0.8,0.5-1.2c0.5-0.7,1.5-0.9,2.4-0.9c5.3-0.3,10.6-0.2,15.9,0.4c2.2,0.2,4.6,0.6,6.4,1.9
	c3,2.1,3.8,6.2,4.2,9.9c1.3,11.1,0.8,22.3,0.3,33.4c0,0.1,0,0.3-0.1,0.4c-0.1,0.2-0.4,0.2-0.6,0.2c-4.8,0.6-30.7-0.7-32.2-0.7
	c-0.7,0-1.5,0.2-2.1-0.3c-0.3-0.2-0.4-0.6-0.6-0.9c-1.6-3.8-2.2-8.1-1.7-12.2l-0.3-0.6c1.6-6.1,2.7-12.4,3-18.8
	c0.2-2.8,0.2-5.6,1.4-8.2"/>
<path fill="#F9E8E4" stroke="#000000" stroke-linecap="round" stroke-linejoin="round" stroke-miterlimit="10" d="M72.8,92.7
	c0.1,0.5,0.2,0.9,0.5,1.3c0.3,0.4,0.8,0.7,1.2,0.6c0.9-0.2,1-1.6,1.7-2.2c0.1,0.7,0.4,1.4,1,1.8c0.6,0.4,1.5,0.3,1.8-0.3
	c0.3-0.4,0.3-1.1,0.8-1.1c0.4,0,0.5,0.5,0.8,0.7c0.5,0.4,1.2,0.2,1.7-0.1c0.7-0.4,1.2-1.1,1.4-1.9l-1.2-5.8L72,84.2L72.8,92.7z"/>
<path fill="#FFFF00" stroke="#000000" stroke-linecap="round" stroke-linejoin="round" stroke-miterlimit="10" d="M67.9,72.2
	c0.3,4.8,0.7,9.7,1,14.5c0,0.4,0.1,0.7,0.3,1c0.2,0.3,0.6,0.4,1,0.5c3.3,0.7,6.6,1,9.9,0.8c2.3-0.1,4.7-0.4,6.7-1.7
	c-1.1-5.5-1.8-11.1-2-16.8c0-0.8-0.3-1.8-1.1-1.8"/>
<g>
	<circle fill="#F9E8E4" stroke="#000000" stroke-miterlimit="10" cx="72.5" cy="34.6" r="28.1"/>
	<ellipse transform="matrix(0.9645 0.2641 -0.2641 0.9645 9.53 -12.157)" cx="50" cy="29.4" rx="2.1" ry="6.6"/>
	<path fill="none" stroke="#000000" stroke-width="2" stroke-linecap="round" stroke-miterlimit="10" d="M49.4,43.9
		c2.7,0.3,5.4,0.7,8,1.3"/>
	<path fill="#A67C52" stroke="#000000" stroke-width="0.5" stroke-miterlimit="10" d="M100.4,36.7c1.5,10.3-7.2,20.5-8.8,21.4
		c0.3-1,0.6-2,0.9-3c0.2-0.5,0.3-1.2-0.2-1.5c-0.3-0.2-0.7-0.2-1.1-0.1c-1.3,0.3-2.6,0.5-3.9,0.8c1-1.1,1.4-2.6,1.3-4
		c0,1.6-1.9,2.4-3.4,2.6c-1.5,0.2-3.1,0.2-4.7,0c0.7-1.3,1.7-2.3,2.9-3c-0.7,0.1-1.4,0-2-0.4c0.8-0.7,1.5-1.4,2.3-2.1
		c-1.4-0.1-2.7-0.2-4.1-0.3c1.6-1.4,3-3.1,4-5c-1.7,0.9-3.8,1-5.6,0.3c2-1,3.3-3.3,3.2-5.6c-1,1-2.3,2.1-3.6,1.6
		c-1.1-0.5-1.4-2.1-0.9-3.2c0.5-1.1,1.6-1.8,2.7-2.4c-0.6-1-2.1-1.2-3.2-0.8c-1.1,0.4-2.1,1.2-3.2,1.6c-0.3-1.4,0.3-2.9,1.5-3.8
		c-1.8-0.7-4.1,0.5-4.5,2.4c-0.8-0.3-0.9-1.3-0.7-2.1s0.6-1.6,0.6-2.4c-1.3,0.4-2.3,1.4-3,2.5c0.3-2.5,0-5.1-1-7.4
		c-0.4,2.2-2.9,3.2-5.1,3.9c0.3-1.4,0.2-2.9-0.2-4.2c-0.8,1.1-1.9,1.9-3.1,2.5c-0.6-1.1,0.3-2.7-0.6-3.6c-0.8-0.8-2.1-0.1-2.9,0.5
		c0-0.7,0-1.4,0-2.2c-0.5,0.5-1.1,1.1-1.8,1.2c-0.7,0.1-1.6-0.4-1.5-1.1c0.1-0.6-0.2-2-0.1-2.7c-1.2-0.1-0.6-0.4-3.3,1
		c0.8-4.1,5.2-5.7,6.8-6c0,0,7.6-0.3,16.8,0.8c7.1,0.9,13,7.6,19.7,13.9C94.4,30.3,99.5,30.9,100.4,36.7z"/>
	<path fill="#FF7BAC" stroke="#000000" stroke-linecap="round" stroke-linejoin="round" stroke-miterlimit="10" d="M91.1,12.2
		c-17-14.4-33.5-3.3-36-1.3L41.3,2.1c-0.3-0.2-1.5,0.3-1.7,0.7c-0.2,0.3-0.1,0.8,0.2,1l60.3,38.4c0,0,0,0,0.1,0
		c0.1,0,0.1,0.2,0.2,0.2c0.1,0,0.1,0.1,0.2,0.1c0,0,0,0,0,0c0,0,0,0,0,0c0,0,0,0,0,0c0.1,0,0.2-0.1,0.3-0.2c0,0,0,0.2,0.1,0.2
		c0.1-0.1,0.2,0,0.2,0c0,0,0,0,0,0c0,0,0-0.3,0-0.3c0-0.1,0.1-0.3,0.1-0.3C101.3,41.7,105.1,24,91.1,12.2z"/>
</g>
</svg>
