<?xml version="1.0" encoding="utf-8"?>
<!-- Generator: Adobe Illustrator 18.1.1, SVG Export Plug-In . SVG Version: 6.00 Build 0)  -->
<svg version="1.1" id="Layer_1" xmlns="http://www.w3.org/2000/svg" xmlns:xlink="http://www.w3.org/1999/xlink" x="0px" y="0px"
	 viewBox="0 0 128 128" enable-background="new 0 0 128 128" xml:space="preserve">
<path fill="#F9E8E4" stroke="#000000" stroke-linecap="round" stroke-linejoin="round" stroke-miterlimit="10" d="M34.6,67.2
	c-0.5,0.1-0.9,0.2-1.3,0.5s-0.7,0.8-0.6,1.2c0.2,0.9,1.6,1,2.2,1.7c-0.7,0.1-1.4,0.4-1.8,1c-0.4,0.6-0.3,1.5,0.3,1.8
	c0.4,0.3,1.1,0.3,1.1,0.8c0,0.4-0.5,0.5-0.7,0.8c-0.4,0.5-0.2,1.2,0.1,1.7c0.4,0.7,1.1,1.2,1.9,1.4l5.8-1.2l1.5-10.6L34.6,67.2z"/>
<path fill="#FFFF00" stroke="#000000" stroke-miterlimit="10" d="M58.5,77.3c-2.4,0.9-4.8,1.8-7.1,2.7c-2.9,1.1-6,2.3-9.1,1.9
	c-0.3,0-0.6-0.1-0.8-0.2c-0.4-0.3-0.4-0.8-0.5-1.2c-0.6-5.8-1-11.6-1.3-17.4c0-0.5,0-1,0.2-1.5c0.4-0.7,1.3-0.9,2.2-0.9
	c3.6,0,6.9,2.2,10.4,2c2.7-0.1,5.4-1.7,8-1.1c0.2,4.1,0.4,8.1,0.5,12.2c0.1,1.3,0,3-1.2,3.7"/>
<path fill="#CCCCCC" stroke="#000000" stroke-miterlimit="10" d="M55.1,55.6c-7.6-4.1-15.4-8.1-23.1-11.9c-2.8-1.4-6.2-3.1-10-2.9
	c-1,0.1-2.2,0.5-2.8,1.5c-0.4,0.6-0.4,1.4-0.1,2.1c0.2,0.4,0.6,0.7,1,0.8l1.3,1.4C15,52.1,10.6,59.4,8.8,67.5
	c-0.1,0.4-0.3,1.4-0.6,1.5c-0.1,0.1-0.5,0.1-0.8,0c-0.5,0-1,0-1.6,0.1c-2.2,0.6-3.1,3-3.4,4.1c-0.1,0.4-0.1,0.8,0.1,1.2
	C2.6,74.8,3,75,3.4,75.1c2.4,0.5,4.3,2.5,6.3,4.5c1.7,1.7,3.5,3.5,5.7,4.6c1,0.5,2.1,0.8,3.1,1.2c0.8,0.3,1.6,0.5,2.4,0.8
	c0.7,0.3,1.3,0.7,2,1c1.6,0.9,3.2,1.8,5.2,2c0.2,0,0.5,0,0.7,0c0.3,0,0.5,0,0.8,0c0.5,0.1,0.9,0.3,1.5,0.6l3.4,1.8
	c0.4,0.2,0.8,0.2,1.1,0.1c0.1,0,0.3-0.1,0.4-0.2c0.9-0.7,1.5-1.7,1.7-2.7c0,0,0.1-0.1,0.1-0.1l6.4-7.2c0.8-0.8,1.6-1.8,2.2-2.9
	c0.5-1,0.8-2.1,1.1-3L52,60.8c0.1-0.3,0-0.6-0.1-0.9c0,0,0,0,0,0c0.3-0.1,0.5-0.2,0.8-0.3c1-0.3,2.4-0.7,3-2.2
	C56,56.8,55.7,56,55.1,55.6z"/>
<path fill="none" stroke="#000000" stroke-linecap="round" stroke-linejoin="round" stroke-miterlimit="10" d="M60.4,102.2
	c12.5,0.5,22.5,1.9,33.3-0.9c-0.1,0.2-0.3,0.4-0.4,0.5"/>
<path fill="#F9E8E4" stroke="#000000" stroke-linecap="round" stroke-linejoin="round" stroke-miterlimit="10" d="M93.3,86.6
	c0,1.3,0,2.6,0,3.9c0,0.4,0,0.7,0.2,1c0.4,0.4,1.1,0.3,1.6-0.1c0.7-0.6,1-1.6,1-2.6c0.1-1-0.1-1.9,0-2.9L93.3,86.6z"/>
<path fill="#FFFF00" stroke="#000000" stroke-linecap="round" stroke-linejoin="round" stroke-miterlimit="10" d="M91.1,83.8
	c0.2,0.8,0.3,1.6,0.8,2.2c0.9,1.2,2.5,1.1,3.7,0.9c2.1-0.4,0.2-0.6,2.2-1.4c0.1-0.1,0.3-0.1,0.4-0.3c0.1-0.2,0.1-0.4,0-0.6
	c-0.8-3.9,0-7.2-2-11.1c-0.8-1.5-3.2-9.9-4.3-11.3c-1.4-1.7-2.5,0.7-3.2,0.8s-1.3,1.1-0.9,1.9L91.1,83.8z"/>
<path fill="#FFFF00" stroke="#000000" stroke-linecap="round" stroke-linejoin="round" stroke-miterlimit="10" d="M60.4,60.7
	c1.4-2.8,1.4-2.8,3.3-1.8c0.4,0.2,0.3-0.8,0.5-1.2c0.5-0.7,1.5-0.9,2.4-0.9c5.3-0.3,10.6-0.2,15.9,0.4c2.2,0.2,4.6,0.6,6.4,1.9
	c3,2.1,3.8,6.2,4.2,9.9c1.3,11.1,0.8,22.3,0.3,33.4c0,0.1,0,0.3-0.1,0.4c-0.1,0.2-0.4,0.2-0.6,0.2c-4.8,0.6-30.7-0.7-32.2-0.7
	c-0.7,0-1.5,0.2-2.1-0.3c-0.3-0.2-0.4-0.6-0.6-0.9c-1.6-3.8-2.2-8.1-1.7-12.2l-0.3-0.6c1.6-6.1,2.7-12.4,3-18.8
	c0.2-2.8,0.2-5.6,1.4-8.2L60.4,60.7z"/>
<circle fill="#F9E8E4" stroke="#000000" stroke-miterlimit="10" cx="74.5" cy="34.6" r="28.1"/>
<ellipse cx="80" cy="35.4" rx="2.1" ry="6.6"/>
<ellipse cx="68" cy="35.4" rx="2.1" ry="6.6"/>
<path fill="none" stroke="#000000" stroke-width="2" stroke-linecap="round" stroke-miterlimit="10" d="M70.4,49.4
	c3.4-0.1,5,0,8.1,0.3"/>
<path fill="#A67C52" stroke="#000000" stroke-width="0.5" stroke-miterlimit="10" d="M99.2,21.3c0.2-0.2,1.9,3.7,3.5,9.4
	c0.5,1.7-0.5,3.6-1.9,4.6c-0.6-1.5-0.7-3.2-0.4-4.7c-0.4,0.6-1.1,1.1-1.9,1.3c0-1.2,0-2.3,0-3.5c-1.1,1-2.2,2-3.2,3.1
	c0-2.4-0.4-4.8-1.2-7.1c-0.5,2.1-2,3.9-3.9,4.7c0.7-2.4-0.3-5.2-2.3-6.9c0.1,1.6,0.1,3.5-1.3,4.1c-1.2,0.5-2.8-0.4-3.3-1.7
	c-0.5-1.3-0.3-2.7,0-4c-1.3-0.3-2.5,0.7-3.1,2c-0.5,1.2-0.6,2.6-1,3.8c-1.4-0.9-2.2-2.5-2.1-4.1c-1.9,0.9-2.6,3.6-1.4,5.5
	c-0.8,0.4-1.8-0.3-2.3-1.1c-0.5-0.8-0.8-1.7-1.6-2.3c-0.6,1.3-0.6,2.9-0.1,4.3c-1.8-2.2-4.2-3.9-6.9-4.9c1.5,2,0.5,4.8-0.6,7.1
	c-1-1.3-2.2-2.4-3.7-3.1c0.3,1.5,0.2,3-0.2,4.4c-1.4-0.3-2-2.3-3.4-2.3c-1.2,0-1.6,1.6-1.7,2.8c-0.6-0.5-1.2-1.1-1.8-1.6
	c0.1,0.8,0.1,1.7-0.3,2.3s-1.5,0.9-2,0.3c-0.5-0.5-1.8-1.5-2.3-2c-1,0.9-1.7,1.9-2.4,5.1c-0.8-5.2,1.1-10.9,2-12.5
	c0,0,2.6-8.8,11.5-13.6c7.1-3.8,18.8-5,28.8-0.2C94.3,13.1,100.5,22.2,99.2,21.3z"/>
<path fill="#FF7BAC" stroke="#000000" stroke-linecap="round" stroke-linejoin="round" stroke-miterlimit="10" d="M45,28.7
	c0,0,4-24.4,29.4-23.8s29.4,23.8,29.4,23.8S74.4,0.9,45,28.7z"/>
<path fill="#CE2572" stroke="#000000" stroke-linecap="round" stroke-linejoin="round" stroke-miterlimit="10" d="M45,28.7
	c0,0,23.9-28,58.8,0c0,0-11.5-16.6-29.3-16.6C55,12.1,45,28.7,45,28.7z"/>
<path fill="#29ABE2" stroke="#000000" stroke-linecap="round" stroke-linejoin="round" stroke-miterlimit="10" d="M56.4,96.1
	c-0.1,5.5-0.2,11.1-0.3,16.6c0,2-0.1,4,0.2,6c0.1,0.5,0.2,1,0.6,1.3c0.3,0.3,0.8,0.3,1.2,0.3c3.1,0.3,6.2,0.5,9.4,0.8
	c2.4,0.2,4.9,0.4,7.3,0.6c0.3,0,0.6,0,0.8-0.1c0.8-0.3,0.8-1.3,0.7-2.1c-0.3-2.8-0.6-5.7-0.9-8.5c0-0.4-0.6-9.4-0.4-9.7
	s7.4,15.1,10.1,18.4c0.3,0.3,0.5,0.6,0.9,0.8c0.3,0.2,0.7,0.2,1.1,0.3c2.7,0.4,5.5,0.4,8.3,0.2c0.4,0,0.8-0.1,1.1-0.3
	c0.4-0.3,0.5-0.7,0.6-1.2c0.8-3,0-6.1-0.7-9c-0.5-2,5.1,1,4.6-1c-0.7-2.8-7-13.5-7-13.5s-8.5-1.2-11.4-1.3
	c-4.6-0.2-9.2-0.7-13.8-0.6c-1.2,0-2.4,0.1-3.6,0.1c-1.6,0.1-3.3,0.1-4.9,0.2c-1.6,0.1-3.4,0.3-4.1,1.6"/>
<path fill="#CCCCCC" stroke="#000000" stroke-linecap="round" stroke-linejoin="round" stroke-miterlimit="10" d="M54.5,123.5
	c-0.2-2.3,1.5-4.4,3.6-5.3c2.1-0.9,4.4-1,6.7-1c1,0,1.9,0,2.9,0c1.6,0,3.2,0,4.8,0.4c1.6,0.4,3,1.4,3.7,2.8c0.4,0.7,0.4,1.8-0.2,2.3
	c-0.2,0.1-0.4,0.2-0.6,0.3c-3.7,1.2-7.7,1.7-11.6,1.4c-2.7-0.2-5.3-0.7-8-1.2L54.5,123.5z"/>
<ellipse transform="matrix(0.8713 0.4907 -0.4907 0.8713 67.4152 -31.2789)" fill="#666666" stroke="#000000" stroke-linecap="round" stroke-linejoin="round" stroke-miterlimit="10" cx="93.3" cy="112.9" rx="9.6" ry="11.6"/>
<line fill="none" stroke="#4D4D4D" stroke-linecap="round" stroke-linejoin="round" stroke-miterlimit="10" x1="86.9" y1="118.8" x2="93.1" y2="104.8"/>
<line fill="none" stroke="#4D4D4D" stroke-linecap="round" stroke-linejoin="round" stroke-miterlimit="10" x1="85.7" y1="113.8" x2="88.9" y2="106.5"/>
<line fill="none" stroke="#4D4D4D" stroke-linecap="round" stroke-linejoin="round" stroke-miterlimit="10" x1="97.7" y1="119.8" x2="100.9" y2="112.5"/>
<line fill="none" stroke="#4D4D4D" stroke-linecap="round" stroke-linejoin="round" stroke-miterlimit="10" x1="89" y1="121.9" x2="97" y2="103.8"/>
<line fill="none" stroke="#4D4D4D" stroke-linecap="round" stroke-linejoin="round" stroke-miterlimit="10" x1="93.9" y1="120.8" x2="100.1" y2="106.8"/>
</svg>
