<?xml version="1.0" encoding="utf-8"?>
<!-- Generator: Adobe Illustrator 18.1.1, SVG Export Plug-In . SVG Version: 6.00 Build 0)  -->
<svg version="1.1" id="Layer_1" xmlns="http://www.w3.org/2000/svg" xmlns:xlink="http://www.w3.org/1999/xlink" x="0px" y="0px"
	 viewBox="0 0 128 128" enable-background="new 0 0 128 128" xml:space="preserve">
<polygon fill="#FFFFFF" stroke="#000000" stroke-width="2" stroke-miterlimit="10" points="82.4,55.5 58.3,70 33.6,56.4 33.1,28.2 
	57.3,13.6 81.9,27.3 "/>
<rect x="42.1" y="61.1" fill="#FFFFFF" stroke="#000000" stroke-width="2" stroke-miterlimit="10" width="31.7" height="51.5"/>
<g>
	<g>
		<path d="M73.1,78C82.1,73,91,68,100,63c-0.6-0.8-1.2-1.6-1.8-2.4c-1,0.4-1.9,0.9-2.9,1.3c0.5,0.8,1,1.7,1.5,2.5
			c0.9-1.1,1.8-1.9,2.9-2.8c1.5-1.2-0.6-3.3-2.1-2.1c-1.1,0.9-2,1.7-2.9,2.8c-1,1.2,0,2.7,1.5,2.5c1.8-0.3,2.9-0.9,4.2-2.1
			c1.3-1.2-0.4-3.2-1.8-2.4c-9,4.9-17.9,9.9-26.9,15C69.9,76.4,71.4,79,73.1,78L73.1,78z"/>
	</g>
</g>
<g>
	<g>
		<path d="M98.3,57.8c0.2-2.2,0.3-4.5,0.5-6.7c0.1-1.8-2.4-1.9-2.9-0.4c-0.9,2.5-1.8,5-2.3,7.6c-0.3,1.3-0.5,2.9,0.5,4.1
			c0.9,1,2.2,1.2,3.3,0.6c2.3-1.1,4.5-3.7,6.4-5.3c-0.9-0.4-1.7-0.7-2.6-1.1c0.1,1.3-2.9,2.7-3.5,3.9c-0.5,0.9-0.1,1.8,0.9,2.2
			c2.6,1,5.3,2.1,7.9,3.1c1.8,0.7,2.6-2.2,0.8-2.9c-2.6-1-5.3-2.1-7.9-3.1c0.3,0.7,0.6,1.5,0.9,2.2c1.1-2.3,4.1-2.3,3.9-5.4
			c-0.1-1.4-1.6-1.9-2.6-1.1c-1,0.9-2.1,1.8-3.1,2.6c-0.5,0.4-1.1,0.8-1.6,1.3c-0.9,1-0.8,1.1-0.5-0.4c0.4-2.6,1.4-5.2,2.3-7.6
			c-1-0.1-2-0.3-2.9-0.4c-0.2,2.2-0.3,4.5-0.5,6.7C95.2,59.8,98.2,59.8,98.3,57.8L98.3,57.8z"/>
	</g>
</g>
<g>
	<g>
		<path d="M42.6,77.3c-6-6.7-11.8-13.5-17.6-20.4c-0.7,0.7-1.4,1.4-2.1,2.1c2,2,4,4,6,6c1.1,1.1,2.8,0,2.5-1.5
			c-0.2-0.8-0.4-1.6-0.5-2.5c-0.4-1.9-3.3-1.1-2.9,0.8c0.2,0.8,0.4,1.6,0.5,2.5c0.8-0.5,1.7-1,2.5-1.5c-2-2-4-4-6-6
			c-1.4-1.4-3.3,0.7-2.1,2.1c5.8,6.9,11.6,13.7,17.6,20.4C41.8,80.9,43.9,78.7,42.6,77.3L42.6,77.3z"/>
	</g>
</g>
<g>
	<g>
		<path d="M21.5,57.7c-2.1-0.8-4.3-1.4-6.6-1.9c-0.1,1-0.3,2-0.4,2.9c2.5,0.2,5.1,0.2,7.6,0.2c1.4,0,3.3,0.2,4.1-1.3
			c0.7-1.2-0.2-2.4-0.9-3.3c-1.6-2-3.2-3.9-4.8-5.9c-1.1-1.3-3.2,0.4-2.4,1.8c1.2,2.2,2.4,4.4,3.7,6.5c0.6,1.1,1.5,2.5,3,2
			c1.4-0.4,1.5-2.2,1.8-3.4c0.5-2.4,1-4.8,1.5-7.3c0.4-1.9-2.5-2.7-2.9-0.8c-0.3,1.7-0.7,3.3-1,5c-0.2,1-0.4,3.6-0.8,4
			c0.5-0.1,1-0.3,1.5-0.4c-0.5-0.1-1.8-3.1-2-3.5c-0.7-1.2-1.4-2.5-2.1-3.7c-0.8,0.6-1.6,1.2-2.4,1.8c0.8,1,1.7,2.1,2.5,3.1
			c0.4,0.5,0.9,1.3,1.4,1.7c0.2,0.2,0.4,0.5,0.6,0.7c1.3-0.2,1.5-0.3,0.6-0.2c-2.9-0.4-6.1,0-9-0.2c-1.7-0.1-2.1,2.6-0.4,2.9
			c2.3,0.4,4.4,1,6.6,1.9C22.5,61.3,23.3,58.4,21.5,57.7L21.5,57.7z"/>
	</g>
</g>
<g>
	<g>
		<path d="M49.3,114.4c-0.4,1.4-0.1,4-2.2,4.1c-0.8,0-2.8-1.7-3.6-2c-3.1-1.3-6.3-1.6-9.7-1.2c0.5,0.6,1,1.3,1.4,1.9
			c1.1-3-0.8-5-3.3-6.4c-1.6-0.9-2.8,1.1-1.8,2.4c1.4,1.8,2.8,3.6,4.3,5.4c0.7-0.7,1.4-1.4,2.1-2.1c-1.8-1.4-3.5-2.3-5.7-3
			c-1.9-0.5-2.7,2.4-0.8,2.9c1.6,0.5,3,1.1,4.4,2.2c1.5,1.2,3.3-0.6,2.1-2.1c-1.4-1.8-2.8-3.6-4.3-5.4c-0.6,0.8-1.2,1.6-1.8,2.4
			c1.2,0.5,1.9,1.5,1.9,3c-0.3,0.8,0.5,2,1.4,1.9c3.4-0.4,6.7-0.1,9.7,1.5c1.4,0.7,2.6,1.9,4.2,1.9c3.7,0.1,3.7-4,4.4-6.6
			C52.8,113.4,49.9,112.6,49.3,114.4L49.3,114.4z"/>
	</g>
</g>
<g>
	<g>
		<path d="M59.6,113.1c-0.4,2.9-1.5,9,1.7,11c3,1.9,9.5-1.3,12.6-2c3.1-0.8,6.3-1.5,9.4-2.3c1.6-0.4,4.4-0.5,5.6-1.8
			c2-2.1,0-4.4-1.7-5.7c-1.4-1.1-3,1.2-1.8,2.4c1.6,1.7,4.7,4.6,7.3,3.5c3.1-1.3,2.3-5.4,1.5-7.8c-0.6-1.8-3.5-1.1-2.9,0.8
			c-1.3,2.9-2.6,3.4-3.8,1.4c-0.6,0.8-1.2,1.6-1.8,2.4c1.1,0.8-6.6,2.8-7,2.9c-2.2,0.5-4.4,1.1-6.6,1.6c-2.1,0.5-4.5,1.5-6.6,1.6
			c-1.2,0.8-2.2,0.7-3-0.4c-0.4-2.2-0.4-4.5,0-6.7C62.8,112,59.9,111.2,59.6,113.1L59.6,113.1z"/>
	</g>
</g>
<g>
	<g>
		<path d="M43.7,92.4c4.5,0.6,8.8,0.6,13.3,0.1c4.4-0.5,11.1-3,15.2-0.8c1.7,0.9,3.2-1.7,1.5-2.6c-3.1-1.7-6.4-0.9-9.7-0.5
			c-6.5,0.9-12.9,1.9-19.4,1C42.6,89.3,41.8,92.2,43.7,92.4L43.7,92.4z"/>
	</g>
</g>
<g>
	<g>
		<path d="M42,35.5c-0.8,0.9-1.5,2-1.4,3.3c0.1,1.2,1.2,2.2,2.4,2.2c1.1,0,2.1-0.8,2.5-1.8c0.6-1.4,0-2.8-0.7-4
			c-0.5-0.9-1.7-0.9-2.4-0.3c-1.4,1.3-1.4,3.7,0,5c1.6,1.4,4.1,1.1,5.4-0.4c1.3-1.4,1.6-4.1,0.3-5.6c-1.6-1.9-3.9-0.8-5.1,0.9
			c-1.2,1.6-1.5,4,0.1,5.4c1.5,1.4,4.2,0.7,4.6-1.4c0.4-2-1.6-3.3-3.4-2.8c-2.3,0.6-2.4,2.7-3.5,4.5c-1,1.7,1.6,3.2,2.6,1.5
			c0.5-0.9,0.8-2,1.3-2.9c0.1-0.1,0.3-0.1,0.3-0.1c0-0.4-0.1-0.8-0.2-1.2c0-0.3,0.1-0.5,0.3-0.8c0.2-0.4,0.5-1.1,0.7-0.4
			c0.1,0.3-0.1,0.8-0.3,1c-0.5,0.7-1.9,0.3-1.2-0.4c-0.8-0.1-1.6-0.2-2.4-0.3c0.2,0.3,0.3,1,0.5,1.3c0.8,1.1,0.8,0.2,1.3-0.3
			C45.5,36.2,43.3,34.1,42,35.5L42,35.5z"/>
	</g>
</g>
<g>
	<g>
		<path d="M65.1,37.1c-2,0.1-3.2,2.4-2,4.1c1.4,1.9,4.2,1.1,5.2-0.8c0.9-1.8,0.6-4.7-1.6-5.3c-2.2-0.6-3.7,1.8-4.2,3.6
			c-0.6,1.9,0.3,4.5,2.7,4.4c1.1-0.1,1.9-0.9,2.2-1.8c0.4-1.1,0.9-2.4,0.9-3.6c0-2.3-2.7-4-4.4-2c-1.3,1.6-1.7,4.7,0.7,5.6
			c2.7,1,4.2-2.7,3.7-4.8c-0.6-2.4-3.4-3.3-5.3-1.8c-1.5,1.2,0.6,3.3,2.1,2.1c-0.1,0.1,0.2,0.2,0.3,0.4c0.1,0.4-0.4,1-0.3,1.3
			c0.3,0.8,1.1-0.6,1-0.8c-0.2-0.1-0.5-0.1-0.7-0.2c0,0.1-0.1,0.2-0.1,0.3c-0.2,0.2-0.6,1.8-0.6,2.1c-0.1,0.2,0,0.3,0.3,0.2
			c0.2-0.1,0.3-0.1,0.4,0.1c0.1-0.1,0.1-0.8,0.2-0.9c0.1-0.3,0.7-1,0.7-1.2C66.3,38,66.2,38,66,38c-0.2-0.1-0.3-0.1-0.2,0.2
			c-0.1,0.2,0,0.4-0.1,0.6c0,0.2-0.2,0.4-0.3,0.5c-0.1,0.3,0.4,0.8-0.4,0.8C67,40,67,37,65.1,37.1L65.1,37.1z"/>
	</g>
</g>
<g>
	<g>
		<path d="M44.8,52.1c3.1,2.7,6.8,7.7,11.4,7.5c4.7-0.2,9.3-3.2,12.6-6.3c1.4-1.3-0.7-3.4-2.1-2.1c-2.5,2.3-5.8,4.6-9.2,5.1
			c-4.1,0.6-7.8-3.8-10.6-6.3C45.5,48.7,43.4,50.8,44.8,52.1L44.8,52.1z"/>
	</g>
</g>
<g>
	<g>
		<path d="M31.5,27.8c-4.2-1.2-8.3-1.8-12.6-1.9c-1.7,0-2.1,2.6-0.4,2.9c26.3,5.6,52.5-5.7,78.8-1.6c1.9,0.3,2.7-2.4,0.8-2.9
			c-2.1-0.6-4.2-1.2-6.3-1.7c-1.9-0.5-2.7,2.4-0.8,2.9c2.1,0.6,4.2,1.2,6.3,1.7c0.3-1,0.5-1.9,0.8-2.9c-26.3-4.1-52.6,7.2-78.8,1.6
			c-0.1,1-0.3,2-0.4,2.9c4,0,7.9,0.6,11.8,1.7C32.6,31.2,33.3,28.3,31.5,27.8L31.5,27.8z"/>
	</g>
</g>
<g>
	<g>
		<path d="M36.1,28.9c5.9-8.7,15.1-14.3,25.6-15.3c5.9-0.5,11.7-0.3,16.9,2.7c4.6,2.6,9,5.8,13.5,8.6c1.6,1,3.1-1.5,1.5-2.6
			c-5.4-3.5-10.8-7.8-16.7-10.3c-5.3-2.2-11.9-2-17.5-1.2c-10.7,1.5-19.9,7.6-25.9,16.5C32.5,29,35.1,30.5,36.1,28.9L36.1,28.9z"/>
	</g>
</g>
<g>
	<g>
		<path d="M48.1,22.3c0.8-1,1.5-2,2.3-3c0.9-1.2-0.9-2.8-2.1-2.1c-3.7,2.5-7.2,5.2-10.5,8.3c-1.2,1.1,0.4,3.3,1.8,2.4
			c3.9-2.7,7.7-5.3,11.6-8c-0.6-0.8-1.2-1.6-1.8-2.4c-3.4,3.2-6.9,6.1-10.5,9c0.7,0.7,1.4,1.4,2.1,2.1c4.6-4,9.7-7.4,15.1-10.3
			c-0.6-0.8-1.2-1.6-1.8-2.4c-4.3,4.5-8.8,8.7-13.6,12.7c0.7,0.7,1.4,1.4,2.1,2.1c6-5.7,12.5-10.6,19.7-14.6
			c-0.6-0.8-1.2-1.6-1.8-2.4c-3.7,4.3-7.9,8.1-12.6,11.4c0.6,0.8,1.2,1.6,1.8,2.4c5.3-4.2,11-8,16.9-11.3c-0.5-0.9-1-1.7-1.5-2.6
			c-4.6,3.5-9.4,6.8-14.2,10c0.6,0.8,1.2,1.6,1.8,2.4c5.9-4.8,12.3-8.8,19.2-12c-0.7-0.7-1.4-1.4-2.1-2.1
			c-3.5,4.6-8.4,7.5-13.3,10.3c-1.7,1-0.2,3.5,1.5,2.6c5-2.8,9.9-5.5,14.9-8.3c-0.6-0.8-1.2-1.6-1.8-2.4c-3.8,3.3-7.8,6.2-12.2,8.6
			c0.5,0.9,1,1.7,1.5,2.6c4.5-2.6,9-5,13.8-7.2c-0.5-0.9-1-1.7-1.5-2.6c-5.2,3.4-10.4,6.9-15.6,10.3c-1.6,1.1-0.2,3.4,1.5,2.6
			c5.4-2.7,10.8-5.4,16.3-8.1c-0.5-0.9-1-1.7-1.5-2.6c-2.8,2-5.6,4-8.4,6c-1.6,1.1-0.1,3.7,1.5,2.6c3.7-2.6,7.5-4.8,11.7-6.5
			c-0.5-0.8-1-1.7-1.5-2.5c-2.3,2.3-4.9,4.2-7.7,5.8c0.5,0.9,1,1.7,1.5,2.6c2.9-1.9,6-3.3,9.2-4.5c-0.5-0.8-1-1.7-1.5-2.5
			c-1.4,1.8-2.9,3.3-4.8,4.7c-1.5,1.1-0.2,3.5,1.5,2.6c2.8-1.4,5.6-2.9,8.5-4.3c-0.6-0.8-1.2-1.6-1.8-2.4c-1,1-2.1,1.9-3.1,2.9
			c-1.4,1.3,0.7,3.4,2.1,2.1c1.3-1.2,2.8-2,4.6-2.4c-0.6-0.7-1.1-1.5-1.7-2.2c-0.7,1.6-1.8,2.8-3.4,3.6c0.6,0.8,1.2,1.6,1.8,2.4
			c1.4-2.2,3.2-2.6,5.5-1.1c0.8-0.6,1.6-1.2,2.4-1.8c-4-4.6-10.6-4.7-14.7-9.1c-0.4,0.9-0.7,1.7-1.1,2.6c3-0.3,7.2,3.4,9.6,4.9
			c1.5,0.9,2.9-1.1,1.8-2.4c-2.7-2.9-5.8-4.8-9.6-5.8c-1.4-0.4-2.6,1.5-1.5,2.5c0.8,0.7,1.6,1.4,2.3,2c0.4-0.9,0.7-1.7,1.1-2.6
			c-8.2,0.6-16.4,0.9-24.6,0.8c0.1,1,0.3,2,0.4,2.9c4.9-1.1,9.8-2.2,14.8-3.3c1.6-0.4,1.3-3.1-0.4-2.9c-3.9,0.3-7.7,1-11.5,2.1
			c0.4,0.9,0.8,1.8,1.2,2.7c3.3-2.1,6.6-3.5,10.4-4.4c-0.4-0.9-0.8-1.8-1.2-2.7c-5.8,3.7-11.6,7.5-17.4,11.2
			c-1.4,0.9-0.5,3.3,1.2,2.7c4.1-1.4,8.2-2.5,12.4-3.4c-0.4-0.9-0.8-1.8-1.2-2.7c-3.4,2.5-6.8,4.6-10.6,6.4
			c-1.5,0.7-0.4,3.3,1.2,2.7c3.1-1.1,6.3-2.2,9.4-3.3c-0.4-0.9-0.8-1.8-1.2-2.7c-2.4,1.3-4.8,2.7-7.2,4c-1.5,0.8-0.5,3.2,1.2,2.7
			c9.3-2.6,18.5-5,28.2-4.8c-0.3-0.9-0.5-1.9-0.8-2.8c-1.8,1.3-3.9,1.8-6,1.5c0.1,1,0.3,2,0.4,2.9c4.2-1.3,8.4-2.1,12.8-2.6
			c-0.4-0.8-0.9-1.5-1.3-2.3c0.9-1.3-2-9.9-2.3-11.6c-0.3-1.9-3.2-1.1-2.9,0.8c0.3,1.9,2.9,19.3,7.8,12.3c0.6-0.9-0.2-2.4-1.3-2.3
			c-4.6,0.5-9.1,1.4-13.6,2.7c-1.7,0.5-1.2,2.7,0.4,2.9c2.9,0.4,5.1-0.2,7.5-1.9c1.2-0.8,0.8-2.8-0.8-2.8c-9.9-0.2-19.5,2.2-29,4.9
			c0.4,0.9,0.8,1.8,1.2,2.7c2.4-1.3,4.8-2.6,7.2-4c1.5-0.8,0.5-3.3-1.2-2.7c-3.1,1.1-6.3,2.2-9.4,3.3c0.4,0.9,0.8,1.8,1.2,2.7
			c3.8-1.8,7.3-3.9,10.6-6.4c1.3-1,0.6-3.1-1.2-2.7c-4.2,0.9-8.4,2-12.4,3.4c0.4,0.9,0.8,1.8,1.2,2.7c5.8-3.7,11.6-7.5,17.4-11.2
			c1.4-0.9,0.5-3.1-1.2-2.7c-4,0.9-7.6,2.5-11.1,4.7c-1.4,0.9-0.5,3.2,1.2,2.7c3.5-1,7.1-1.6,10.7-1.9c-0.1-1-0.3-2-0.4-2.9
			c-4.9,1.1-9.8,2.2-14.8,3.3c-1.7,0.4-1.3,2.9,0.4,2.9c8.2,0.1,16.4-0.2,24.6-0.8c1.2-0.1,2.1-1.6,1.1-2.6c-0.8-0.7-1.6-1.4-2.3-2
			c-0.5,0.8-1,1.7-1.5,2.5c3.4,0.9,5.9,2.4,8.3,5c0.6-0.8,1.2-1.6,1.8-2.4c-3.3-2-7.2-5.7-11.2-5.3c-1.3,0.1-2,1.5-1.1,2.6
			c4.1,4.5,10.7,4.6,14.7,9.1c1.1,1.3,3.1-0.4,2.4-1.8c-2.5-4.6-7.2-2.3-10.2,0.5c-1.2,1.2,0.3,3.2,1.8,2.4c2-1.2,3.4-2.6,4.5-4.7
			c0.6-1.1-0.4-2.6-1.7-2.2c-2.3,0.6-4.1,1.6-5.9,3.1c0.7,0.7,1.4,1.4,2.1,2.1c1-1,2.1-1.9,3.1-2.9c1.3-1.2-0.3-3.1-1.8-2.4
			c-2.8,1.4-5.6,2.9-8.5,4.3c0.5,0.9,1,1.7,1.5,2.6c2-1.5,3.8-3.2,5.4-5.2c0.8-1,0.1-3.1-1.5-2.5c-3.5,1.3-6.8,2.8-10,4.8
			c-1.6,1-0.2,3.6,1.5,2.6c3.1-1.8,5.7-3.8,8.3-6.2c1-1,0-3.1-1.5-2.5c-4.4,1.8-8.5,4-12.5,6.8c0.5,0.9,1,1.7,1.5,2.6
			c2.8-2,5.6-4,8.4-6c1.6-1.1,0.2-3.5-1.5-2.6c-5.4,2.7-10.8,5.4-16.3,8.1c0.5,0.9,1,1.7,1.5,2.6C64,25,69.2,21.6,74.4,18.1
			c1.6-1.1,0.2-3.4-1.5-2.6c-4.7,2.2-9.3,4.6-13.8,7.2c-1.7,1-0.2,3.5,1.5,2.6c4.6-2.6,8.8-5.6,12.8-9.1c1.3-1.1-0.4-3.2-1.8-2.4
			c-5,2.8-9.9,5.5-14.9,8.3c0.5,0.9,1,1.7,1.5,2.6c5.4-3.1,10.5-6.4,14.4-11.4c1-1.3-0.9-2.6-2.1-2.1c-7.1,3.4-13.7,7.5-19.8,12.5
			c-1.3,1.1,0.4,3.3,1.8,2.4c4.9-3.2,9.6-6.5,14.2-10c1.5-1.1,0.2-3.6-1.5-2.6c-6.1,3.5-11.9,7.4-17.5,11.8c-1.3,1,0.4,3.3,1.8,2.4
			c4.9-3.4,9.3-7.3,13.2-11.8c1.1-1.3-0.3-3.2-1.8-2.4c-7.4,4.2-14.2,9.2-20.3,15.1c-1.4,1.4,0.7,3.3,2.1,2.1
			c4.8-3.9,9.3-8.1,13.6-12.7c1.2-1.3-0.3-3.2-1.8-2.4c-5.7,3-10.9,6.6-15.7,10.8c-1.5,1.3,0.6,3.3,2.1,2.1c3.6-2.8,7.1-5.8,10.5-9
			c1.2-1.1-0.4-3.3-1.8-2.4c-3.9,2.7-7.7,5.3-11.6,8c0.6,0.8,1.2,1.6,1.8,2.4c3.1-2.9,6.3-5.5,9.9-7.8c-0.7-0.7-1.4-1.4-2.1-2.1
			c-0.8,1-1.5,2-2.3,3C44.3,22.3,46.9,23.8,48.1,22.3L48.1,22.3z"/>
	</g>
</g>
</svg>
