<?xml version="1.0" encoding="utf-8"?>
<!-- Generator: Adobe Illustrator 18.1.1, SVG Export Plug-In . SVG Version: 6.00 Build 0)  -->
<svg version="1.1" id="Layer_1" xmlns="http://www.w3.org/2000/svg" xmlns:xlink="http://www.w3.org/1999/xlink" x="0px" y="0px"
	 viewBox="0 0 128 128" enable-background="new 0 0 128 128" xml:space="preserve">
<path fill="#CCCCCC" stroke="#000000" stroke-miterlimit="10" d="M70.3,57.4c0.6,1.5,1.9,1.9,3,2.2c0.3,0.1,0.6,0.2,0.8,0.3
	c0,0,0,0,0,0c-0.1,0.3-0.1,0.6-0.1,0.9l4.3,14.8c0.3,0.9,0.6,2,1.1,3c0.6,1.1,1.5,2.1,2.2,2.9l6.4,7.2c0,0,0.1,0.1,0.1,0.1
	c0.2,1.1,0.8,2.1,1.7,2.7c0.1,0.1,0.3,0.2,0.4,0.2c0.4,0.1,0.8,0.1,1.1-0.1l3.4-1.8c0.5-0.3,1-0.6,1.5-0.6c0.3,0,0.5,0,0.8,0
	c0.2,0,0.5,0,0.7,0c2-0.1,3.6-1.1,5.2-2c0.7-0.4,1.3-0.8,2-1c0.7-0.3,1.5-0.6,2.4-0.8c1-0.3,2.1-0.6,3.1-1.2c2.3-1.1,4-2.9,5.7-4.6
	c2-2,3.9-3.9,6.3-4.5c0.4-0.1,0.7-0.3,0.9-0.7c0.2-0.4,0.2-0.8,0.1-1.2c-0.3-1.1-1.2-3.5-3.4-4.1c-0.6-0.2-1.2-0.1-1.6-0.1
	c-0.3,0-0.7,0-0.8,0c-0.3-0.1-0.5-1.1-0.6-1.5c-1.8-8.1-6.2-15.4-12.5-20.8l1.3-1.4c0.4-0.1,0.8-0.4,1-0.8c0.3-0.7,0.2-1.4-0.1-2.1
	c-0.6-1-1.9-1.5-2.8-1.5c-3.8-0.2-7.2,1.5-10,2.9c-7.7,3.8-15.5,7.8-23.1,11.9C70.3,56,70,56.8,70.3,57.4z"/>
<path fill="#F9E8E4" stroke="#000000" stroke-linecap="round" stroke-linejoin="round" stroke-miterlimit="10" d="M91.4,67.2
	c0.5,0.1,0.9,0.2,1.3,0.5c0.4,0.3,0.7,0.8,0.6,1.2c-0.2,0.9-1.6,1-2.2,1.7c0.7,0.1,1.4,0.4,1.8,1c0.4,0.6,0.3,1.5-0.3,1.8
	c-0.4,0.3-1.1,0.3-1.1,0.8c0,0.4,0.5,0.5,0.7,0.8c0.4,0.5,0.2,1.2-0.1,1.7c-0.4,0.7-1.1,1.2-1.9,1.4l-5.8-1.2l-1.5-10.6L91.4,67.2z"
	/>
<circle fill="#F9E8E4" stroke="#000000" stroke-miterlimit="10" cx="51.6" cy="34.6" r="28.1"/>
<path fill="#FFFF00" stroke="#000000" stroke-linecap="round" stroke-linejoin="round" stroke-miterlimit="10" d="M86.1,61.6
	c-0.4-0.7-1.3-0.9-2.2-0.9c-3.6,0-6.9,2.2-10.4,2c-2.6-0.1-5.1-1.5-7.6-1.1c0-0.1-0.1-0.2-0.1-0.3l-0.2-0.6c-1.4-2.8-5.3-3.9-6.2-4
	c-5.3-0.3-10.6-0.2-15.9,0.4c-2.2,0.2-4.6,0.6-6.4,1.9c-3,2.1-3.8,6.2-4.2,9.9c-1.3,11.1-0.8,16.3-0.3,27.4c0,0.1,0,0.3,0.1,0.4
	c0.1,0.2,0.4,0.2,0.6,0.2c4.8,0.6,30.7-0.7,32.2-0.7c0.7,0,4,0.1,4.5-0.3c0.3-0.2,0.1-1.7,0.1-1.7c-1.1-4.1-1.9-11-2.4-17
	c2.3,0.9,4.6,1.8,7,2.7c2.9,1.1,6,2.3,9.1,1.9c0.3,0,0.6-0.1,0.8-0.2c0.4-0.3,0.4-0.8,0.5-1.2c0.6-5.8,1-11.6,1.3-17.4
	C86.3,62.6,86.3,62.1,86.1,61.6z"/>
<path fill="#F9E8E4" stroke="#000000" stroke-linecap="round" stroke-linejoin="round" stroke-miterlimit="10" d="M32.7,86.6
	c0,1.3,0,2.6,0,3.9c0,0.4,0,0.7-0.2,1c-0.4,0.4-1.1,0.3-1.6-0.1c-0.7-0.6-1-1.6-1-2.6c-0.1-1,0.1-1.9,0-2.9L32.7,86.6z"/>
<path fill="#FFFF00" stroke="#000000" stroke-linecap="round" stroke-linejoin="round" stroke-miterlimit="10" d="M34.9,83.8
	c-0.2,0.8-0.3,1.6-0.8,2.2c-0.9,1.2-2.5,1.1-3.7,0.9c-2.1-0.4-0.2-0.6-2.2-1.4c-0.1-0.1-0.3-0.1-0.4-0.3c-0.1-0.2-0.1-0.4,0-0.6
	c0.8-3.9,0-7.2,2-11.1c0.8-1.5,3.2-9.9,4.3-11.3c1.4-1.7,3.5-0.8,4.3-0.6s0.3,2.5-0.1,3.3L34.9,83.8z"/>
<path fill="#666666" stroke="#000000" stroke-linecap="round" stroke-linejoin="round" stroke-miterlimit="10" d="M46.8,123.5
	c0-0.8,0.1-1.7-0.1-2.5c-0.2-0.8-0.7-1.6-1.4-2c-1-0.5-2.3-0.2-3.4-0.3c-1.6-0.1-3.2-0.8-4.8-1c-1.1-0.1-2.2,0-3.2,0.4
	c-0.8,0.3-1.6,0.8-1.9,1.6c-0.1,0.4-0.1,0.8-0.1,1.3c0,0.8,0,1.5,0,2.3c1.2,0.3,2.4,0.1,3.6,0c2.2-0.1,4.4,0.1,6.6,0.3
	c0.3,0,0.7,0.1,1,0.1c0.8,0.1,1.5,0.2,2.3,0.2L46.8,123.5z"/>
<path fill="#666666" stroke="#000000" stroke-linecap="round" stroke-linejoin="round" stroke-miterlimit="10" d="M52.9,123.5
	c0-0.8-0.1-1.7,0.1-2.5c0.2-0.8,0.7-1.6,1.4-2c1-0.5,2.3-0.2,3.4-0.3c1.6-0.1,3.2-0.8,4.8-1c1.1-0.1,2.2,0,3.2,0.4
	c0.8,0.3,1.6,0.8,1.9,1.6c0.1,0.4,0.1,0.8,0.1,1.3c0,0.8,0,1.5,0,2.3c-1.2,0.3-2.4,0.1-3.6,0c-2.2-0.1-4.4,0.1-6.6,0.3
	c-0.3,0-0.7,0.1-1,0.1c-0.8,0.1-1.5,0.2-2.3,0.2L52.9,123.5z"/>
<path fill="#29ABE2" stroke="#000000" stroke-linecap="round" stroke-linejoin="round" stroke-miterlimit="10" d="M69.7,96.1
	c0.1,5.5,0.2,11.1,0.3,16.6c0,2,0.1,4-0.2,6c-0.1,0.5-0.2,1-0.6,1.3c-0.3,0.3-0.8,0.3-1.2,0.3c-3.1,0.3-6.2,0.5-9.4,0.8
	c-2.4,0.2-4.9,0.4-7.3,0.6c-0.3,0-0.6,0-0.8-0.1c-0.8-0.3-0.8-1.3-0.7-2.1c0.3-2.8,0.3-18,0.2-18.4s-1,14.9-1.9,19.6
	c-0.1,0.4-0.5,0.6-0.9,0.8c-0.3,0.2-0.7,0.2-1.1,0.3c-2.7,0.4-14.7-1.4-14.8-1.8c-0.8-3,0.8-24,0.8-24s8.5-1.2,11.4-1.3
	c4.6-0.2,9.2-0.7,13.8-0.6c1.2,0,2.4,0.1,3.6,0.1c1.6,0.1,3.3,0.1,4.9,0.2c1.6,0.1,3.4,0.3,4.1,1.6"/>
<path fill="#A67C52" stroke="#000000" stroke-linecap="round" stroke-linejoin="round" stroke-miterlimit="10" d="M26.3,51.6
	c0.6,1.7,1.7,3.6,3.4,3.6c0.9,0,1.7-0.6,2.6-0.5c0.9,0.1,1.5,0.8,2.3,1.2c0.8,0.4,2,0.3,2.2-0.6c0.8,0.8,1.6,1.6,2.4,2.4
	c0.7-0.4,0.9-1.3,1.3-1.9s1.4-1.2,2-0.6c0.2,0.2,0.3,0.6,0.6,0.7c0.2,0.1,0.5-0.1,0.6-0.3c0.6-0.6,1.2-1.1,1.9-1.7
	c0.6,0.7,1.2,1.4,1.8,2c0.2,0.1,0.4,0.3,0.6,0.3c0.2,0,0.4-0.3,0.5-0.5c0.5-0.8,1-1.7,1.4-2.5c0.3,0.7,1.4,0.6,1.8,0.1
	c0.5-0.6,0.5-1.4,0.5-2.1c0.3-0.3,0.8,0,1,0.4s0.2,0.9,0.5,1.2c0.7,0.7,2.3,0.2,2.5,1.2c0.8-0.5,1.6-1,2.5-1.5
	c0.2-0.1,0.5-0.3,0.7-0.2c0.5,0.1,0.6,0.7,0.6,1.1c0.1,1.6,0.2,3.2,0.3,4.7c0.4-0.7,0.9-1.3,1.3-2c0.2-0.3,0.4-0.6,0.7-0.6
	c0.3,0,0.5,0.1,0.8,0.2c1.6,0.5,2.9-2.6,4.5-1.8c0,0.8,0.2,1.7,0.6,2.4c-0.1-0.5,0.5-0.8,1-0.8s0.9,0.3,1.4,0.3
	c0.5,0,4.4-0.2,4.5-0.7c2.1-8.7,3.2-8.7,4.4-14.8c0.4-1.9,0.3-3.7,0.1-5.6c-0.5-3.7-2.5-7-3.2-10.1c-0.4-2-3.1-5.2-4.3-6.9
	c-1.5-2.3-21.8-3.7-32.1-4.7c-1.9-0.2,2.5-0.5,0.6-0.4s-14.2,6.3-15.2,12.2c-0.4,2.5-2.6,10.3-2.2,12.8c0.3,1.6-0.2,7.1,0.4,8.7
	c0.7,2-1.1,6.1-0.4,8.1L26.3,51.6z"/>
<path fill="#D33978" stroke="#000000" stroke-linecap="round" stroke-linejoin="round" stroke-miterlimit="10" d="M24.3,23.5
	c0,0,5.8-21,24.4-21C68.4,2.4,74.1,14,78.3,24.8S24.3,23.5,24.3,23.5z"/>
<path fill="#FF7BAC" stroke="#000000" stroke-linecap="round" stroke-linejoin="round" stroke-miterlimit="10" d="M23.3,26.6
	c0-1.3,6.1-20.6,27.3-20.1s25.5,14.8,27.9,20.1C81,32,75.9,46.3,49.6,45.3C27.7,44.5,23.3,39.9,23.3,26.6z"/>
<path fill="#8C6239" stroke="#000000" stroke-linecap="round" stroke-linejoin="round" stroke-miterlimit="10" d="M42.6,40.5
	c0,0,1.5-4.7,7.6-4.6s6.6,4.6,6.6,4.6H42.6z"/>
<path fill="#FF7BAC" stroke="#000000" stroke-linecap="round" stroke-linejoin="round" stroke-miterlimit="10" d="M44.8,40.5h12.8
	c1.2,0,2.1,1,2.1,2.2v0c0,1.2-0.9,2.2-2.1,2.2H44.8"/>
<circle fill="#D33978" stroke="#000000" stroke-width="0.25" stroke-linecap="round" stroke-linejoin="round" stroke-miterlimit="10" cx="51.1" cy="42.8" r="0.9"/>
<circle fill="#D33978" stroke="#000000" stroke-width="0.25" stroke-linecap="round" stroke-linejoin="round" stroke-miterlimit="10" cx="48.1" cy="42.8" r="0.9"/>
<circle fill="#D33978" stroke="#000000" stroke-width="0.25" stroke-linecap="round" stroke-linejoin="round" stroke-miterlimit="10" cx="54.1" cy="42.8" r="0.9"/>
<circle fill="#D33978" stroke="#000000" stroke-width="0.25" stroke-linecap="round" stroke-linejoin="round" stroke-miterlimit="10" cx="57.1" cy="42.8" r="0.9"/>
</svg>
